<svg xmlns="http://www.w3.org/2000/svg" xmlns:xlink="http://www.w3.org/1999/xlink" version="1.1" width="600" height="600" viewBox="0 0 600 600" xml:space="preserve">
<desc>Created with Fabric.js 3.5.0</desc>
<defs>
</defs>
<rect x="0" y="0" width="100%" height="100%" fill="#ffffff"/>
<g transform="matrix(4.5642 0 0 6.5051 304.4799 326.8576)" id="45948" clip-path="url(#CLIPPATH_6)">
<clipPath id="CLIPPATH_6">
	<rect transform="matrix(1 0 0 1 0.0001 0)" id="clip0_302_96" x="-79" y="-79" rx="0" ry="0" width="158" height="158"/>
</clipPath>
<path style="stroke: none; stroke-width: 1; stroke-dasharray: none; stroke-linecap: butt; stroke-dashoffset: 0; stroke-linejoin: miter; stroke-miterlimit: 4; is-custom-font: none; font-file-url: none; fill: rgb(89,89,89); fill-rule: nonzero; opacity: 1;" vector-effect="non-scaling-stroke" transform=" translate(-78.9999, -79)" d="M 106.124 -0.0000765851 H 51.8754 C 51.8303 -0.0000765851 51.7848 -0.0000765851 51.7397 -0.0000765851 C 23.1271 0.0374314 -0.0376151 23.2628 -0.000107103 51.8754 V 106.124 C -0.000107103 106.17 -0.000107103 106.215 -0.000107103 106.26 C 0.0374009 134.873 23.2628 158.037 51.8754 158 H 106.124 C 106.17 158 106.215 158 106.26 158 C 134.873 157.962 158.037 134.737 158 106.124 V 51.8754 C 158 51.8303 158 51.7848 158 51.7397 C 157.962 23.1271 134.737 -0.0375846 106.124 -0.0000765851 Z" stroke-linecap="round"/>
</g>
<g transform="matrix(3.691 0 0 4.0999 299.9975 368.0813)" id="792971" clip-path="url(#CLIPPATH_7)">
<clipPath id="CLIPPATH_7">
	<rect transform="matrix(1 0 0 1 0.0001 0.0002)" id="clip0_302_100" x="-79" y="-79" rx="0" ry="0" width="158" height="158"/>
</clipPath>
<path style="stroke: none; stroke-width: 1; stroke-dasharray: none; stroke-linecap: butt; stroke-dashoffset: 0; stroke-linejoin: miter; stroke-miterlimit: 4; is-custom-font: none; font-file-url: none; fill: rgb(217,217,217); fill-rule: nonzero; opacity: 1;" vector-effect="non-scaling-stroke" transform=" translate(-78.9999, -78.9998)" d="M 154.685 0.000367219 H 3.31409 C 1.48378 0.000367219 0 1.48415 0 3.31478 V 154.686 C 0 156.516 1.48378 158 3.31409 158 H 154.685 C 156.515 158 157.999 156.516 157.999 154.686 V 3.31478 C 158 3.26912 158 3.22347 157.999 3.17813 C 157.962 1.38523 156.478 -0.0373614 154.685 0.000367219 Z" stroke-linecap="round"/>
</g>
<g transform="matrix(3.421 0 0 1.4806 300.0002 205.9512)" id="564031" clip-path="url(#CLIPPATH_8)">
<clipPath id="CLIPPATH_8">
	<rect transform="matrix(1 0 0 1 0.0001 0.0002)" id="clip0_302_100" x="-79" y="-79" rx="0" ry="0" width="158" height="158"/>
</clipPath>
<path style="stroke: none; stroke-width: 1; stroke-dasharray: none; stroke-linecap: butt; stroke-dashoffset: 0; stroke-linejoin: miter; stroke-miterlimit: 4; is-custom-font: none; font-file-url: none; fill: rgb(255,255,255); fill-rule: nonzero; opacity: 1;" vector-effect="non-scaling-stroke" transform=" translate(-78.9999, -78.9998)" d="M 154.685 0.000367219 H 3.31409 C 1.48378 0.000367219 0 1.48415 0 3.31478 V 154.686 C 0 156.516 1.48378 158 3.31409 158 H 154.685 C 156.515 158 157.999 156.516 157.999 154.686 V 3.31478 C 158 3.26912 158 3.22347 157.999 3.17813 C 157.962 1.38523 156.478 -0.0373614 154.685 0.000367219 Z" stroke-linecap="round"/>
</g>
<g transform="matrix(1 0 0 1 285.8229 23.6977)" style="" id="992985">
		
<path xml:space="preserve" font-family="Anton" font-size="27" font-style="normal" font-weight="normal" style="stroke: none; stroke-width: 1; stroke-dasharray: none; stroke-linecap: butt; stroke-dashoffset: 0; stroke-linejoin: miter; stroke-miterlimit: 4; is-custom-font: none; font-file-url: none; fill: rgb(0,0,0); fill-rule: nonzero; opacity: 1; white-space: pre;" d="M-51.96 8.48L-56.58 8.48L-56.58-14.72L-51.96-14.72L-51.96-6.43L-49.77-6.43L-49.77-14.72L-45.16-14.72L-45.16 8.48L-49.77 8.48L-49.77-2.04L-51.96-2.04L-51.96 8.48ZM-37.65 8.69L-37.65 8.69Q-39.76 8.69-41.01 7.90Q-42.26 7.11-42.80 5.62Q-43.34 4.13-43.34 2.04L-43.34 2.04L-43.34-5.91Q-43.34-8.67-41.76-10.09Q-40.18-11.50-37.41-11.50L-37.41-11.50Q-31.71-11.50-31.71-5.91L-31.71-5.91L-31.71-4.48Q-31.71-1.87-31.77-0.97L-31.77-0.97L-38.62-0.97L-38.62 2.85Q-38.62 3.38-38.56 3.89Q-38.49 4.39-38.26 4.72Q-38.03 5.05-37.51 5.05L-37.51 5.05Q-36.78 5.05-36.59 4.41Q-36.41 3.78-36.41 2.75L-36.41 2.75L-36.41 0.85L-31.71 0.85L-31.71 1.97Q-31.71 4.18-32.26 5.68Q-32.81 7.18-34.11 7.93Q-35.40 8.69-37.65 8.69ZM-38.65-5.98L-38.65-3.32L-36.41-3.32L-36.41-5.98Q-36.41-7.05-36.67-7.52Q-36.93-7.98-37.46-7.98L-37.46-7.98Q-38.03-7.98-38.34-7.54Q-38.65-7.09-38.65-5.98L-38.65-5.98ZM-26.40 8.69L-26.40 8.69Q-28.05 8.69-28.91 7.93Q-29.78 7.16-30.09 5.83Q-30.41 4.50-30.41 2.81L-30.41 2.81Q-30.41 1.01-30.05-0.15Q-29.70-1.30-28.83-2.04Q-27.97-2.78-26.45-3.29L-26.45-3.29L-23.53-4.29L-23.53-6.32Q-23.53-7.92-24.57-7.92L-24.57-7.92Q-25.52-7.92-25.52-6.63L-25.52-6.63L-25.52-5.44L-30.10-5.44Q-30.12-5.55-30.12-5.71Q-30.12-5.88-30.12-6.09L-30.12-6.09Q-30.12-9.04-28.73-10.27Q-27.34-11.50-24.32-11.50L-24.32-11.50Q-22.74-11.50-21.48-10.94Q-20.23-10.38-19.50-9.29Q-18.77-8.20-18.77-6.59L-18.77-6.59L-18.77 8.48L-23.46 8.48L-23.46 6.14Q-23.80 7.37-24.59 8.03Q-25.38 8.69-26.40 8.69ZM-24.54 5.03L-24.54 5.03Q-23.96 5.03-23.75 4.54Q-23.54 4.05-23.54 3.49L-23.54 3.49L-23.54-2.03Q-24.51-1.63-25.06-1.03Q-25.60-0.43-25.60 0.73L-25.60 0.73L-25.60 3.27Q-25.60 5.03-24.54 5.03ZM-12.15 8.48L-16.95 8.48L-16.95-11.29L-12.15-11.29L-12.15-9.09Q-11.81-10.24-10.94-10.88Q-10.07-11.53-8.75-11.53L-8.75-11.53L-8.75-7.59Q-9.33-7.59-10.13-7.46Q-10.94-7.34-11.54-7.12Q-12.15-6.90-12.15-6.64L-12.15-6.64L-12.15 8.48ZM-3.53 8.69L-3.53 8.69Q-5.44 8.69-6.10 7.88Q-6.77 7.07-6.77 5.40L-6.77 5.40L-6.77-6.93L-8.10-6.93L-8.10-10.53L-6.77-10.53L-6.77-14.72L-2.18-14.72L-2.18-10.53L-0.85-10.53L-0.85-6.93L-2.18-6.93L-2.18 4.29Q-2.18 4.78-2.02 4.97Q-1.87 5.17-1.42 5.17L-1.42 5.17Q-1.10 5.17-0.85 5.12L-0.85 5.12L-0.85 8.34Q-1.01 8.39-1.84 8.54Q-2.67 8.69-3.53 8.69ZM8.21 8.48L2.55 8.48L0.06-14.72L4.59-14.72L5.87-0.07L7.18-14.72L11.50-14.72L12.74-0.07L13.98-14.72L18.57-14.72L16.04 8.48L10.47 8.48L9.31-2.68L8.21 8.48ZM23.47 8.69L23.47 8.69Q21.83 8.69 20.96 7.93Q20.10 7.16 19.78 5.83Q19.47 4.50 19.47 2.81L19.47 2.81Q19.47 1.01 19.82-0.15Q20.18-1.30 21.04-2.04Q21.90-2.78 23.42-3.29L23.42-3.29L26.35-4.29L26.35-6.32Q26.35-7.92 25.31-7.92L25.31-7.92Q24.36-7.92 24.36-6.63L24.36-6.63L24.36-5.44L19.77-5.44Q19.76-5.55 19.76-5.71Q19.76-5.88 19.76-6.09L19.76-6.09Q19.76-9.04 21.15-10.27Q22.54-11.50 25.56-11.50L25.56-11.50Q27.14-11.50 28.39-10.94Q29.64-10.38 30.38-9.29Q31.11-8.20 31.11-6.59L31.11-6.59L31.11 8.48L26.41 8.48L26.41 6.14Q26.07 7.37 25.28 8.03Q24.49 8.69 23.47 8.69ZM25.33 5.03L25.33 5.03Q25.91 5.03 26.12 4.54Q26.33 4.05 26.33 3.49L26.33 3.49L26.33-2.03Q25.36-1.63 24.82-1.03Q24.28-0.43 24.28 0.73L24.28 0.73L24.28 3.27Q24.28 5.03 25.33 5.03ZM40.90 8.48L35.44 8.48L32.27-11.29L37.00-11.29L38.13 1.92L39.41-11.29L44.13-11.29L40.90 8.48ZM50.91 8.69L50.91 8.69Q48.80 8.69 47.55 7.90Q46.29 7.11 45.75 5.62Q45.21 4.13 45.21 2.04L45.21 2.04L45.21-5.91Q45.21-8.67 46.80-10.09Q48.38-11.50 51.15-11.50L51.15-11.50Q56.84-11.50 56.84-5.91L56.84-5.91L56.84-4.48Q56.84-1.87 56.79-0.97L56.79-0.97L49.93-0.97L49.93 2.85Q49.93 3.38 50.00 3.89Q50.06 4.39 50.30 4.72Q50.53 5.05 51.04 5.05L51.04 5.05Q51.78 5.05 51.96 4.41Q52.15 3.78 52.15 2.75L52.15 2.75L52.15 0.85L56.84 0.85L56.84 1.97Q56.84 4.18 56.29 5.68Q55.75 7.18 54.45 7.93Q53.15 8.69 50.91 8.69ZM49.91-5.98L49.91-3.32L52.15-3.32L52.15-5.98Q52.15-7.05 51.88-7.52Q51.62-7.98 51.09-7.98L51.09-7.98Q50.53-7.98 50.22-7.54Q49.91-7.09 49.91-5.98L49.91-5.98Z"/></g>
<g transform="matrix(1.4572 0 0 1.4572 365.3599 24.3626)" id="836932">
<path style="stroke: none; stroke-width: 1; stroke-dasharray: none; stroke-linecap: butt; stroke-dashoffset: 0; stroke-linejoin: miter; stroke-miterlimit: 4; is-custom-font: none; font-file-url: none; fill: rgb(192,57,43); fill-rule: nonzero; opacity: 1;" vector-effect="non-scaling-stroke" transform=" translate(-12, -1041.3875)" d="m 7 1031.4 c -1.5355 0 -3.0784 0.5 -4.25 1.7 c -2.3431 2.4 -2.2788 6.1 0 8.5 l 9.25 9.8 l 9.25 -9.8 c 2.279 -2.4 2.343 -6.1 0 -8.5 c -2.343 -2.3 -6.157 -2.3 -8.5 0 l -0.75 0.8 l -0.75 -0.8 c -1.172 -1.2 -2.7145 -1.7 -4.25 -1.7 z" stroke-linecap="round"/>
</g>
</svg>